<?xml version="1.0" encoding="UTF-8"?>
<svg xmlns="http://www.w3.org/2000/svg" version="1.1" viewBox="0 0 24 24">
  <defs>
    <style>
      .cls-1 {
        fill: white;
      }
    </style>
  </defs>
  <!-- Generator: Adobe Illustrator 28.7.3, SVG Export Plug-In . SVG Version: 1.2.0 Build 164)  -->
  <g>
    <g id="Calque_1">
      <g>
        <path class="cls-1" d="M2.2,5c0,.2,0,.4.2.5.3.3.8.3,1.1,0s.2-.3.2-.5v-2.2h2.2c.2,0,.4,0,.5-.2s.2-.3.2-.5,0-.4-.2-.5-.3-.2-.5-.2h-2c-.5,0-.9.2-1.2.5s-.5.8-.5,1.2v2Z"/>
        <path class="cls-1" d="M17.5,2.5c.1.1.3.2.5.2h2.2v2.2c0,.2,0,.4.2.5.3.3.8.3,1.1,0,.1-.1.2-.3.2-.5v-2c0-.5-.2-.9-.5-1.2s-.8-.5-1.2-.5h-2c-.2,0-.4,0-.5.2s-.2.3-.2.5,0,.4.2.5Z"/>
        <path class="cls-1" d="M6.5,21.5c-.1-.1-.3-.2-.5-.2h-2.2v-2.2c0-.2,0-.4-.2-.5-.1-.1-.3-.2-.5-.2s-.4,0-.5.2c-.1.1-.2.3-.2.5v2c0,.5.2.9.5,1.2.3.3.8.5,1.2.5h2c.2,0,.4,0,.5-.2.1-.1.2-.3.2-.5s0-.4-.2-.5Z"/>
        <path class="cls-1" d="M21.8,19c0-.2,0-.4-.2-.5-.3-.3-.8-.3-1.1,0-.1.1-.2.3-.2.5v2.2h-2.2c-.2,0-.4,0-.5.2-.1.1-.2.3-.2.5s0,.4.2.5.3.2.5.2h2c.5,0,.9-.2,1.2-.5s.5-.8.5-1.2v-2Z"/>
        <path class="cls-1" d="M14.5,8.5c-.1-.1-.3-.2-.5-.2h-4c-.2,0-.4,0-.5.2s-.2.3-.2.5,0,.4.2.5.3.2.5.2h4c.2,0,.4,0,.5-.2.1-.1.2-.3.2-.5s0-.4-.2-.5Z"/>
        <path class="cls-1" d="M7,19.8h10c.5,0,.9-.2,1.2-.5s.5-.8.5-1.2V6c0-.5-.2-.9-.5-1.2s-.8-.5-1.2-.5H7c-.5,0-.9.2-1.2.5s-.5.8-.5,1.2v12c0,.5.2.9.5,1.2.3.3.8.5,1.2.5ZM6.8,5.7h10.5v12.5H6.8V5.7Z"/>
        <path class="cls-1" d="M9.5,12.5c.1.1.3.2.5.2h4c.2,0,.4,0,.5-.2s.2-.3.2-.5,0-.4-.2-.5c-.1-.1-.3-.2-.5-.2h-4c-.2,0-.4,0-.5.2s-.2.3-.2.5,0,.4.2.5Z"/>
        <path class="cls-1" d="M9.5,15.5c.1.1.3.2.5.2h4c.2,0,.4,0,.5-.2s.2-.3.2-.5,0-.4-.2-.5c-.1-.1-.3-.2-.5-.2h-4c-.2,0-.4,0-.5.2-.1.1-.2.3-.2.5s0,.4.2.5Z"/>
      </g>
    </g>
  </g>
</svg>