<svg width="30" height="28" viewBox="0 0 30 28" fill="none" xmlns="http://www.w3.org/2000/svg">
<path d="M3.76999e-05 2.81787C3.76999e-05 2.05403 0.305577 1.44295 0.763884 0.984641C1.22219 0.526333 1.98604 0.220795 2.59711 0.220795H27.193C27.9568 0.220795 28.5679 0.526333 29.0262 0.984641C29.4845 1.44295 29.79 2.20679 29.79 2.81787V26.6499C29.79 27.1082 29.6373 27.5665 29.0262 27.7193C28.5679 27.872 28.1096 27.7193 27.804 27.4137L24.1376 23.7473H2.59711C1.83327 23.7473 1.22219 23.4417 0.763884 22.9834C0.305577 22.5251 3.76999e-05 21.7613 3.76999e-05 21.1502V2.81787ZM2.44434 21.6085H25.207L27.4985 23.9V2.35956H2.29158V21.4557L2.44434 21.6085Z" fill="#F5F5F5"/>
<path d="M14.5132 17.942H14.8187C14.8187 14.8866 17.4158 12.2895 20.4712 12.2895V11.984C17.4158 11.984 14.8187 9.38693 14.8187 6.33154H14.5132C14.5132 9.38693 11.9161 11.984 8.86073 11.984V12.2895C11.9161 12.2895 14.5132 14.8866 14.5132 17.942Z" fill="#F5F5F5"/>
</svg>
