<?xml version="1.0" encoding="UTF-8"?>
<svg xmlns="http://www.w3.org/2000/svg" version="1.1" viewBox="0 0 24 24">
  <defs>
    <style>
      .cls-1 {
        fill: #5f6368;
      }
    </style>
  </defs>
  <!-- Generator: Adobe Illustrator 28.7.3, SVG Export Plug-In . SVG Version: 1.2.0 Build 164)  -->
  <g>
    <g id="Calque_1">
      <g>
        <path class="cls-1" d="M20,14.6h-10.2c-.2,0-.3,0-.4.2s-.2.2-.2.4,0,.3.2.4.2.2.4.2h10.2c.2,0,.3,0,.4-.2s.2-.2.2-.4,0-.3-.2-.4-.2-.2-.4-.2Z"/>
        <path class="cls-1" d="M7.5,17c.1-.1.2-.2.2-.4v-2.8c0-.2,0-.3-.2-.4-.2-.2-.6-.2-.8,0-.1.1-.2.2-.2.4v.8h-2.5c-.2,0-.3,0-.4.2s-.2.2-.2.4,0,.3.2.4.2.2.4.2h2.5v.8c0,.2,0,.3.2.4.2.2.6.2.8,0Z"/>
      </g>
      <g>
        <path class="cls-1" d="M20,8.2h-2.5v-.8c0-.2,0-.3-.2-.4-.1-.1-.2-.2-.4-.2s-.3,0-.4.2-.2.2-.2.4v2.8c0,.2,0,.3.2.4.2.2.6.2.8,0,.1-.1.2-.2.2-.4v-.8h2.5c.2,0,.3,0,.4-.2s.2-.2.2-.4,0-.3-.2-.4c-.1-.1-.2-.2-.4-.2Z"/>
        <path class="cls-1" d="M14.1,9.4c.2,0,.3,0,.4-.2s.2-.2.2-.4,0-.3-.2-.4c-.1-.1-.2-.2-.4-.2H4c-.2,0-.3,0-.4.2-.1.1-.2.2-.2.4s0,.3.2.4.2.2.4.2h10.2Z"/>
      </g>
    </g>
  </g>
</svg>